<?xml version="1.0" encoding="UTF-8"?>
<svg width="555px" height="218px" viewBox="0 0 555 218" version="1.1" xmlns="http://www.w3.org/2000/svg" xmlns:xlink="http://www.w3.org/1999/xlink">

    <g stroke="none" stroke-width="1" fill="none" fill-rule="evenodd">
        <g transform="translate(-444.000000, -318.000000)" fill="#FEFEFE">
            <g id="tagline" transform="translate(721.500000, 427.000000) rotate(-270.000000) translate(-721.500000, -427.000000) translate(612.500000, 149.500000)">
                <path d="M198.78112,462.607336 L201.868,470.660256 L201.868,470.764896 L195.69424,468.994736 L195.69424,469.256336 C199.14736,471.501736 202.07728,475.533864 202.07728,479.719464 C202.07728,484.062024 199.252,486.024896 195.79888,485.034304 C190.6192,483.549288 186.90448,477.043296 186.01504,466.21916 L184.28848,465.723864 C180.1552,464.538816 177.69616,465.769208 177.69616,469.536248 C177.69616,474.088088 180.88768,477.201128 185.59648,477.556904 L185.59648,481.847144 C180.57376,480.407472 176.12656,475.835576 176.12656,468.981656 C176.12656,464.168216 178.69024,461.031632 184.18384,462.607336 L197.4208,466.403152 C199.14736,466.897576 198.51952,465.828504 197.31616,462.814872 L198.78112,462.607336 Z M187.53232,466.654288 C187.95088,474.308704 190.77616,480.036872 195.53728,481.401552 C198.15328,482.152344 199.98448,481.055368 199.98448,478.125448 C199.98448,474.253768 195.48496,468.934568 190.25296,467.434728 L187.53232,466.654288 Z M182.5096,449.361656 L175.86496,447.456336 L175.86496,447.665616 L182.82352,456.985552 L183.86992,456.34376 C181.09696,452.619448 181.35856,452.11892 183.60832,452.763328 L196.00816,456.319344 C198.62416,457.069264 199.7752,458.289192 199.7752,461.114472 L199.7752,461.585352 L201.24016,462.004784 L201.24016,450.546704 L199.7752,450.127272 L199.7752,450.598152 C199.7752,453.423432 198.62416,453.982384 196.00816,453.232464 L187.68928,450.846672 C182.30032,449.301488 178.63792,444.17064 178.63792,440.35128 C178.63792,436.42728 181.30624,436.093304 184.65472,437.053376 L196.00816,440.309424 C198.62416,441.059344 199.7752,442.279272 199.7752,445.104552 L199.7752,445.575432 L201.24016,445.994864 L201.24016,434.536784 L199.7752,434.117352 L199.7752,434.588232 C199.7752,437.413512 198.62416,437.972464 196.00816,437.222544 L184.65472,433.966496 C179.3704,432.451832 176.12656,434.189728 176.12656,439.003168 C176.12656,443.084128 178.74256,446.920928 182.5096,449.100056 L182.5096,449.361656 Z M201.24016,411.829904 L201.24016,404.557424 L199.7752,404.137992 L199.7752,404.608872 C199.7752,407.434152 198.62416,407.993104 196.00816,407.243184 L162.41872,397.611944 L162.41872,397.821224 L169.06336,407.522224 L170.10976,406.880432 C167.23216,402.601528 167.65072,402.198664 169.48192,402.723608 L182.71888,406.519424 L182.71888,406.781024 C179.57968,407.34608 176.12656,409.599328 176.12656,414.203488 C176.12656,420.272608 181.51552,427.049792 189.10192,429.225432 C196.68832,431.401072 202.07728,427.714256 202.07728,421.645136 C202.07728,417.040976 199.19968,412.971352 196.06048,410.606488 L196.06048,410.344888 L201.24016,411.829904 Z M200.0368,420.484504 C200.0368,425.925784 194.70016,427.377664 189.10192,425.772312 C183.50368,424.16696 178.16704,419.65436 178.16704,414.21308 C178.16704,409.295 183.0328,406.60924 188.47408,408.169248 L190.3576,408.709888 C195.79888,410.269896 200.0368,415.566424 200.0368,420.484504 Z M180.52144,334.920376 C191.50864,338.608936 197.70856,346.299976 197.70856,356.266936 C197.70856,372.983176 183.0328,380.124856 170.55448,380.124856 C156.97744,380.124856 146.22568,371.492056 146.22568,357.836536 C146.22568,345.829096 153.68128,340.178536 165.7672,337.039336 L165.21784,334.684936 L143.47888,340.649416 L146.1472,345.279736 C144.26368,348.889816 143.4004,353.206216 143.4004,357.601096 C143.4004,373.454056 156.50656,385.461496 173.06584,385.461496 C189.7036,385.461496 202.49584,372.904696 202.49584,357.915016 C202.49584,343.867096 191.74408,335.155816 181.0708,332.879896 L180.52144,334.920376 Z M167.02288,305.334288 L164.82544,305.334288 L164.82544,294.425568 L195.51112,294.425568 C198.10096,294.425568 197.1592,293.091408 195.35416,289.088928 L197.5516,288.147168 L202.18192,298.898928 L202.18192,299.055888 L192.99976,299.055888 L192.99976,299.448288 C198.65032,301.096368 202.49584,305.726688 202.49584,311.848128 C202.49584,318.283488 198.10096,323.070768 190.80232,323.070768 L172.67344,323.070768 C168.74944,323.070768 167.02288,324.404928 167.02288,328.642848 L167.02288,329.349168 L164.82544,329.349168 L164.82544,318.440448 L190.33144,318.440448 C195.1972,318.440448 198.7288,316.635408 198.7288,310.906368 C198.7288,305.177328 193.31368,299.055888 185.23024,299.055888 L172.67344,299.055888 C168.74944,299.055888 167.02288,300.390048 167.02288,304.627968 L167.02288,305.334288 Z M174.7924,278.33804 C171.41776,278.33804 171.02536,279.20132 175.1848,283.5962 L173.6152,285.00884 L163.17736,274.02164 L163.17736,273.70772 L173.14432,273.70772 L173.14432,273.31532 C167.57224,271.27484 163.56976,267.03692 163.56976,261.70028 C163.56976,259.11044 164.43304,256.67756 166.1596,254.5586 L171.57472,258.0902 L171.57472,258.24716 C169.22032,259.73828 168.20008,261.6218 168.20008,264.29012 C168.20008,269.54828 174.4,273.70772 180.91384,273.70772 L193.39216,273.70772 C197.31616,273.70772 199.04272,272.37356 199.04272,268.13564 L199.04272,265.85972 L201.24016,265.85972 L201.24016,284.61644 L199.04272,284.61644 L199.04272,283.91012 C199.04272,279.6722 197.31616,278.33804 193.39216,278.33804 L174.7924,278.33804 Z M146.38264,245.69036 L152.89648,245.69036 L152.89648,239.17652 L146.38264,239.17652 L146.38264,245.69036 Z M173.6152,251.4194 L163.17736,240.4322 L163.17736,240.11828 L193.39216,240.11828 C197.31616,240.11828 199.04272,238.78412 199.04272,234.5462 L199.04272,233.83988 L201.24016,233.83988 L201.24016,251.027 L199.04272,251.027 L199.04272,250.32068 C199.04272,246.08276 197.31616,244.7486 193.39216,244.7486 L174.7924,244.7486 C171.41776,244.7486 171.02536,245.61188 175.1848,250.00676 L173.6152,251.4194 Z M183.0328,194.44292 C172.438,194.44292 163.56976,202.13396 163.56976,212.9642 C163.56976,223.79444 172.438,231.48548 183.0328,231.48548 C193.6276,231.48548 202.49584,223.79444 202.49584,212.9642 C202.49584,202.13396 193.6276,194.44292 183.0328,194.44292 Z M183.0328,199.6226 C192.8428,199.6226 200.14144,204.95924 200.14144,212.9642 C200.14144,220.96916 192.8428,226.3058 183.0328,226.3058 C173.2228,226.3058 165.92416,220.96916 165.92416,212.9642 C165.92416,204.95924 173.2228,199.6226 183.0328,199.6226 Z M172.35952,184.162912 C168.67096,184.162912 165.92416,181.102192 165.92416,175.765552 C165.92416,168.309952 171.2608,164.385952 179.1088,161.953072 L178.16704,159.912592 L163.49128,164.307472 L165.13936,167.996032 C164.27608,170.193472 163.56976,172.783312 163.56976,175.687072 C163.56976,183.535072 168.514,188.165392 173.30128,188.165392 C188.68336,188.165392 181.93408,162.816352 192.60736,162.816352 C197.08072,162.816352 200.14144,166.269472 200.14144,171.763072 C200.14144,177.884512 196.92376,183.848992 185.85808,187.694512 L186.79984,189.734992 L202.41736,185.261632 L200.53384,181.023712 C201.71104,178.355392 202.49584,175.137712 202.49584,171.920032 C202.49584,165.641632 198.17944,158.735392 191.6656,158.735392 C176.44048,158.735392 183.50368,184.162912 172.35952,184.162912 Z M146.38264,147.906024 L152.89648,147.906024 L152.89648,141.392184 L146.38264,141.392184 L146.38264,147.906024 Z M173.6152,153.635064 L163.17736,142.647864 L163.17736,142.333944 L193.39216,142.333944 C197.31616,142.333944 199.04272,140.999784 199.04272,136.761864 L199.04272,136.055544 L201.24016,136.055544 L201.24016,153.242664 L199.04272,153.242664 L199.04272,152.536344 C199.04272,148.298424 197.31616,146.964264 193.39216,146.964264 L174.7924,146.964264 C171.41776,146.964264 171.02536,147.827544 175.1848,152.222424 L173.6152,153.635064 Z M167.25832,125.853144 L167.25832,134.093544 L165.06088,134.093544 C164.66848,126.873384 160.35208,122.321544 152.19016,124.205064 L152.19016,121.222824 L164.82544,121.222824 L164.82544,110.863464 L167.25832,110.863464 L167.25832,121.222824 L193.94152,121.222824 C197.08072,121.222824 199.5136,119.574744 199.5136,116.435544 C199.5136,114.238104 198.49336,112.511544 196.21744,111.020424 L197.47312,109.136904 C199.74904,110.549544 202.49584,113.139384 202.49584,117.377304 C202.49584,122.243064 199.19968,125.853144 193.39216,125.853144 L167.25832,125.853144 Z M167.02288,65.816816 L164.82544,65.816816 L164.82544,79.158416 L167.02288,79.158416 L167.02288,77.117936 C167.02288,74.842016 168.27856,73.743296 170.94688,74.842016 L194.02,84.573536 L170.24056,95.874656 C168.04312,96.894896 167.02288,96.188576 167.02288,93.912656 L167.02288,91.636736 L164.82544,91.636736 L164.82544,106.390976 L167.02288,106.390976 L167.02288,104.742896 C167.02288,102.937856 167.41528,102.074576 169.2988,101.211296 L199.74904,86.927936 L209.3236,91.008896 C213.09064,92.578496 214.26784,94.618976 214.26784,97.365776 C214.26784,100.426496 212.38432,102.466976 210.1084,103.644176 L210.1084,103.879616 L214.8172,107.332736 C216.46528,105.449216 217.79944,102.466976 217.79944,99.170816 C217.79944,94.697456 215.13112,90.694976 209.79448,88.419056 L169.76968,71.624336 C167.41528,70.604096 167.02288,69.505376 167.02288,67.307936 L167.02288,65.816816 Z" id="Fill-1"></path>
                <path d="M81.23552,531.666335 C77.15456,531.666335 75.50648,534.727055 75.50648,538.729535 L75.50648,542.732015 L73.15208,542.732015 L73.15208,518.246255 L75.50648,518.246255 L75.50648,519.894335 C75.50648,523.896815 77.15456,526.957535 81.23552,526.957535 L116.47304,526.957535 C124.94888,526.957535 130.99184,532.765055 130.99184,541.005455 C130.99184,550.030655 124.24256,556.230575 114.19712,554.660975 L115.13888,548.539535 C123.85016,551.207855 128.16656,546.420575 128.16656,540.613055 C128.16656,534.805535 124.478,531.666335 117.57176,531.666335 L81.23552,531.666335 Z M111.5288,483.166567 C100.934,483.166567 92.06576,490.857607 92.06576,501.687847 C92.06576,512.518087 100.934,520.209127 111.5288,520.209127 C122.1236,520.209127 130.99184,512.518087 130.99184,501.687847 C130.99184,490.857607 122.1236,483.166567 111.5288,483.166567 Z M111.5288,488.346247 C121.3388,488.346247 128.63744,493.682887 128.63744,501.687847 C128.63744,509.692807 121.3388,515.029447 111.5288,515.029447 C101.7188,515.029447 94.42016,509.692807 94.42016,501.687847 C94.42016,493.682887 101.7188,488.346247 111.5288,488.346247 Z M95.51888,457.582959 L93.32144,457.582959 L93.32144,446.674239 L124.00712,446.674239 C126.59696,446.674239 125.6552,445.340079 123.85016,441.337599 L126.0476,440.395839 L130.67792,451.147599 L130.67792,451.304559 L121.49576,451.304559 L121.49576,451.696959 C127.14632,453.345039 130.99184,457.975359 130.99184,464.096799 C130.99184,470.532159 126.59696,475.319439 119.29832,475.319439 L101.16944,475.319439 C97.24544,475.319439 95.51888,476.653599 95.51888,480.891519 L95.51888,481.597839 L93.32144,481.597839 L93.32144,470.689119 L118.82744,470.689119 C123.6932,470.689119 127.2248,468.884079 127.2248,463.155039 C127.2248,457.425999 121.80968,451.304559 113.72624,451.304559 L101.16944,451.304559 C97.24544,451.304559 95.51888,452.638719 95.51888,456.876639 L95.51888,457.582959 Z M103.2884,430.194311 C99.91376,430.194311 99.52136,431.057591 103.6808,435.452471 L102.1112,436.865111 L91.67336,425.877911 L91.67336,425.563991 L101.64032,425.563991 L101.64032,425.171591 C96.06824,423.131111 92.06576,418.893191 92.06576,413.556551 C92.06576,410.966711 92.92904,408.533831 94.6556,406.414871 L100.07072,409.946471 L100.07072,410.103431 C97.71632,411.594551 96.69608,413.478071 96.69608,416.146391 C96.69608,421.404551 102.896,425.563991 109.40984,425.563991 L121.88816,425.563991 C125.81216,425.563991 127.53872,424.229831 127.53872,419.991911 L127.53872,417.715991 L129.73616,417.715991 L129.73616,436.472711 L127.53872,436.472711 L127.53872,435.766391 C127.53872,431.528471 125.81216,430.194311 121.88816,430.194311 L103.2884,430.194311 Z M101.64032,392.759351 L91.67336,392.759351 L91.67336,393.073271 L102.1112,404.060471 L103.6808,402.647831 C99.52136,398.252951 99.91376,397.389671 103.2884,397.389671 L121.88816,397.389671 C125.81216,397.389671 127.53872,398.723831 127.53872,402.961751 L127.53872,403.668071 L129.73616,403.668071 L129.73616,386.480951 L127.53872,386.480951 L127.53872,387.187271 C127.53872,391.425191 125.81216,392.759351 121.88816,392.759351 L109.40984,392.759351 C101.3264,392.759351 95.8328,386.637911 95.8328,380.908871 C95.8328,375.022871 99.83528,373.374791 104.858,373.374791 L121.88816,373.374791 C125.81216,373.374791 127.53872,374.708951 127.53872,378.946871 L127.53872,379.653191 L129.73616,379.653191 L129.73616,362.466071 L127.53872,362.466071 L127.53872,363.172391 C127.53872,367.410311 125.81216,368.744471 121.88816,368.744471 L104.858,368.744471 C96.93152,368.744471 92.06576,372.746951 92.06576,379.967111 C92.06576,386.088551 95.98976,390.718871 101.64032,392.366951 L101.64032,392.759351 Z M126.0476,323.226071 L130.67792,333.977831 L130.67792,334.134791 L121.41728,334.134791 L121.41728,334.527191 C126.59696,336.410711 130.99184,341.197991 130.99184,347.476391 C130.99184,353.990231 126.75392,358.149671 121.57424,358.149671 C113.80472,358.149671 108.23264,349.987751 106.89848,334.134791 L104.30864,334.134791 C98.10872,334.134791 94.42016,337.038551 94.42016,342.689111 C94.42016,349.516871 99.20744,352.813031 106.27064,351.321911 L106.27064,357.757271 C98.73656,357.757271 92.06576,352.813031 92.06576,342.532151 C92.06576,335.311991 95.91128,329.504471 104.15168,329.504471 L124.00712,329.504471 C126.59696,329.504471 125.6552,328.170311 123.85016,324.167831 L126.0476,323.226071 Z M109.1744,334.134791 C109.80224,345.435911 114.04016,352.813031 121.18184,352.813031 C125.10584,352.813031 127.85264,350.380151 127.85264,345.985271 C127.85264,340.177751 121.10336,334.134791 113.25536,334.134791 L109.1744,334.134791 Z M81.47096,321.657343 L71.504,309.963823 L71.504,309.649903 L121.88816,309.649903 C125.81216,309.649903 127.53872,308.315743 127.53872,304.077823 L127.53872,303.371503 L129.73616,303.371503 L129.73616,320.558623 L127.53872,320.558623 L127.53872,319.852303 C127.53872,315.614383 125.81216,314.280223 121.88816,314.280223 L82.0988,314.280223 C79.352,314.280223 78.72416,315.065023 83.04056,320.244703 L81.47096,321.657343 Z M117.59792,264.471583 C110.53472,262.446799 104.62256,265.878119 104.62256,273.098279 C104.62256,280.318439 110.53472,287.141839 117.59792,289.166623 C124.66112,291.192279 130.57328,287.760087 130.57328,280.539927 C130.57328,273.319767 124.66112,266.497239 117.59792,264.471583 Z M117.59792,267.924703 C124.13792,269.800375 129.00368,274.753335 129.00368,280.089975 C129.00368,285.426615 124.13792,287.589175 117.59792,285.713503 C111.05792,283.838703 106.19216,278.885743 106.19216,273.549103 C106.19216,268.212463 111.05792,266.049903 117.59792,267.924703 Z M99.7568,235.603151 C95.46656,233.744919 91.17632,234.659647 91.17632,240.467167 C91.17632,245.646847 95.3096,250.389655 101.588,252.190335 L105.45968,253.300391 L105.45968,258.375431 L107.0816,258.841079 L107.0816,253.766039 L124.50416,258.761727 C127.12016,259.511647 128.2712,260.730703 128.2712,263.555983 L128.2712,264.026863 L129.73616,264.447167 L129.73616,251.419487 L128.2712,250.999183 L128.2712,253.039663 C128.2712,255.864943 127.12016,256.424767 124.50416,255.674847 L107.0816,250.679159 L107.0816,239.744279 L105.45968,239.278631 L105.45968,250.213511 L99.54752,248.518343 C95.36192,247.318471 92.74592,244.370239 92.74592,241.126399 C92.74592,237.411679 95.78048,237.654095 99.28592,239.496631 L99.7568,235.603151 Z M129.73616,222.644359 L127.38176,222.644359 L127.38176,220.997151 C127.38176,216.994671 125.73368,213.933951 121.65272,213.933951 L81.23552,213.933951 C77.15456,213.933951 75.50648,216.994671 75.50648,220.997151 L75.50648,222.644359 L73.15208,222.644359 L73.15208,198.473391 C73.15208,185.524191 82.25576,171.632359 101.16944,171.632359 C120.1616,171.632359 129.73616,185.524191 129.73616,198.473391 L129.73616,222.644359 Z M126.91088,199.493631 C126.91088,184.896351 115.8452,177.126831 101.16944,177.126831 C86.49368,177.126831 75.97736,184.896351 75.97736,199.493631 L75.97736,209.225151 L121.18184,209.225151 C125.2628,209.225151 126.91088,206.164431 126.91088,202.161951 L126.91088,199.493631 Z M115.68824,134.983943 C123.22232,135.846351 128.48048,140.869943 128.48048,148.247063 C128.48048,156.329631 120.71096,161.745623 110.90096,161.745623 C109.9592,161.745623 109.01744,161.667143 108.15416,161.588663 L108.15416,132.236271 C98.1872,132.315623 92.06576,139.220991 92.06576,148.090103 C92.06576,158.684031 101.24792,166.925303 111.9212,166.925303 C122.516,166.925303 130.99184,158.763383 130.99184,148.324671 C130.99184,139.457303 124.63496,133.178031 116.63,131.216031 L115.68824,134.983943 Z M94.42016,148.717943 C94.42016,141.575391 99.91376,138.594023 105.79976,138.514671 L105.72128,161.117783 C98.81504,159.390351 94.42016,154.290023 94.42016,148.717943 Z M100.85552,120.151223 C97.16696,120.151223 94.42016,117.090503 94.42016,111.753863 C94.42016,104.298263 99.7568,100.374263 107.6048,97.9413832 L106.66304,95.9009032 L91.98728,100.295783 L93.63536,103.984343 C92.77208,106.181783 92.06576,108.771623 92.06576,111.675383 C92.06576,119.523383 97.01,124.153703 101.79728,124.153703 C117.17936,124.153703 110.43008,98.8046632 121.10336,98.8046632 C125.57672,98.8046632 128.63744,102.257783 128.63744,107.751383 C128.63744,113.872823 125.41976,119.837303 114.35408,123.682823 L115.29584,125.723303 L130.91336,121.249943 L129.02984,117.012023 C130.20704,114.343703 130.99184,111.126023 130.99184,107.908343 C130.99184,101.629943 126.67544,94.7237032 120.1616,94.7237032 C104.93648,94.7237032 111.99968,120.151223 100.85552,120.151223 Z M74.87864,83.1095352 L81.39248,83.1095352 L81.39248,76.5956952 L74.87864,76.5956952 L74.87864,83.1095352 Z M102.1112,88.8385752 L91.67336,77.8513752 L91.67336,77.5374552 L121.88816,77.5374552 C125.81216,77.5374552 127.53872,76.2032952 127.53872,71.9653752 L127.53872,71.2590552 L129.73616,71.2590552 L129.73616,88.4461752 L127.53872,88.4461752 L127.53872,87.7398552 C127.53872,83.5019352 125.81216,82.1677752 121.88816,82.1677752 L103.2884,82.1677752 C99.91376,82.1677752 99.52136,83.0310552 103.6808,87.4259352 L102.1112,88.8385752 Z M103.2884,60.2718552 C99.91376,60.2718552 99.52136,61.1351352 103.6808,65.5300152 L102.1112,66.9426552 L91.67336,55.9554552 L91.67336,55.6415352 L101.64032,55.6415352 L101.64032,55.2491352 C96.06824,53.2086552 92.06576,48.9707352 92.06576,43.6340952 C92.06576,41.0442552 92.92904,38.6113752 94.6556,36.4924152 L100.07072,40.0240152 L100.07072,40.1809752 C97.71632,41.6720952 96.69608,43.5556152 96.69608,46.2239352 C96.69608,51.4820952 102.896,55.6415352 109.40984,55.6415352 L121.88816,55.6415352 C125.81216,55.6415352 127.53872,54.3073752 127.53872,50.0694552 L127.53872,47.7935352 L129.73616,47.7935352 L129.73616,66.5502552 L127.53872,66.5502552 L127.53872,65.8439352 C127.53872,61.6060152 125.81216,60.2718552 121.88816,60.2718552 L103.2884,60.2718552 Z M115.68824,3.7671272 C123.22232,4.6304072 128.48048,9.6531272 128.48048,17.0302472 C128.48048,25.1136872 120.71096,30.5288072 110.90096,30.5288072 C109.9592,30.5288072 109.01744,30.4503272 108.15416,30.3718472 L108.15416,1.0203272 C98.1872,1.0988072 92.06576,8.0050472 92.06576,16.8732872 C92.06576,27.4680872 101.24792,35.7084872 111.9212,35.7084872 C122.516,35.7084872 130.99184,27.5465672 130.99184,17.1087272 C130.99184,8.2404872 124.63496,1.9620872 116.63,8.71999999e-05 L115.68824,3.7671272 Z M94.42016,17.5011272 C94.42016,10.3594472 99.91376,7.3772072 105.79976,7.2987272 L105.72128,29.9009672 C98.81504,28.1744072 94.42016,23.0732072 94.42016,17.5011272 Z" id="Fill-3"></path>
                <path d="M35.5776,530.70356 L35.5776,536.19716 L34.11264,535.776856 C33.85104,530.888424 30.97344,527.028952 25.53216,526.724624 L25.53216,524.736464 L33.95568,527.151904 L33.95568,520.245664 L35.5776,520.71044 L35.5776,527.61668 L53.3664,532.71788 C55.4592,533.317816 57.08112,532.683872 57.08112,530.591072 C57.08112,529.126112 56.40096,527.779744 54.88368,526.351408 L55.7208,525.335528 C57.23808,526.712416 59.06928,528.96392 59.06928,531.7892 C59.06928,535.03304 56.87184,536.809304 53.00016,535.699248 L35.5776,530.70356 Z M53.00016,498.44828 C55.61616,499.1982 56.7672,498.638376 56.7672,495.813096 L56.7672,495.342216 L58.23216,495.76252 L58.23216,507.2206 L56.7672,506.800296 L56.7672,506.329416 C56.7672,503.504136 55.61616,502.28508 53.00016,501.53516 L41.64672,498.279112 C38.29824,497.31904 35.62992,497.653016 35.62992,501.577016 C35.62992,505.396376 39.29232,510.527224 44.68128,512.072408 L53.00016,514.4582 C55.61616,515.20812 56.7672,514.648296 56.7672,511.823016 L56.7672,511.352136 L58.23216,511.77244 L58.23216,523.23052 L56.7672,522.810216 L56.7672,522.339336 C56.7672,519.514056 55.61616,518.295 53.00016,517.54508 L26.47392,509.938624 C24.64272,509.41368 24.3288,509.741552 27.2064,514.020456 L26.05536,514.736368 L19.41072,505.035368 L19.41072,504.826088 L39.5016,510.587392 L39.5016,510.325792 C35.73456,508.146664 33.11856,504.309864 33.11856,500.228904 C33.11856,495.415464 36.3624,493.677568 41.64672,495.192232 L53.00016,498.44828 Z M48.86688,470.736992 C53.8896,472.753056 57.39504,477.106952 57.39504,482.025032 C57.39504,487.413992 52.21536,489.538184 45.67536,487.663384 C45.04752,487.48288 44.41968,487.250928 43.84416,487.0338 L43.84416,467.46612 C37.19952,465.61312 33.11856,469.047056 33.11856,474.959216 C33.11856,482.022416 39.24,489.271352 46.35552,491.31096 C53.41872,493.336616 59.06928,489.515512 59.06928,482.556952 C59.06928,476.644792 54.83136,471.244496 49.49472,468.406136 L48.86688,470.736992 Z M34.68816,475.827728 C34.68816,471.066608 38.35056,470.128336 42.27456,471.201768 L42.22224,486.254232 C37.61808,483.782984 34.68816,479.542448 34.68816,475.827728 Z M9.73152,442.057784 C5.65056,442.057784 4.00248,438.996192 4.00248,434.994584 L4.00248,433.346504 L1.64808,433.346504 L1.64808,455.477864 L4.00248,455.477864 L4.00248,453.829784 C4.00248,449.827304 5.65056,446.766584 9.73152,446.766584 L50.14872,446.766584 C54.22968,446.766584 55.87776,449.827304 55.87776,453.829784 L55.87776,455.477864 L58.23216,455.477864 L58.23216,433.346504 L55.87776,433.346504 L55.87776,434.994584 C55.87776,438.996192 54.22968,442.057784 50.14872,442.057784 L9.73152,442.057784 Z M30.13632,417.337456 L20.16936,417.337456 L20.16936,417.651376 L30.6072,428.638576 L32.1768,427.225936 C28.01736,422.831056 28.40976,421.967776 31.7844,421.967776 L50.38416,421.967776 C54.30816,421.967776 56.03472,423.301936 56.03472,427.539856 L56.03472,428.246176 L58.23216,428.246176 L58.23216,411.059056 L56.03472,411.059056 L56.03472,411.765376 C56.03472,416.003296 54.30816,417.337456 50.38416,417.337456 L37.90584,417.337456 C29.8224,417.337456 24.3288,411.216016 24.3288,405.486976 C24.3288,399.600976 28.33128,397.952896 33.354,397.952896 L50.38416,397.952896 C54.30816,397.952896 56.03472,399.287056 56.03472,403.524976 L56.03472,404.231296 L58.23216,404.231296 L58.23216,387.044176 L56.03472,387.044176 L56.03472,387.750496 C56.03472,391.988416 54.30816,393.322576 50.38416,393.322576 L33.354,393.322576 C25.42752,393.322576 20.56176,397.325056 20.56176,404.545216 C20.56176,410.666656 24.48576,415.296976 30.13632,416.945056 L30.13632,417.337456 Z M24.25032,379.196176 L24.25032,387.436576 L22.05288,387.436576 C21.66048,380.216416 17.34408,375.664576 9.18216,377.548096 L9.18216,374.565856 L21.81744,374.565856 L21.81744,364.206496 L24.25032,364.206496 L24.25032,374.565856 L50.93352,374.565856 C54.07272,374.565856 56.5056,372.917776 56.5056,369.778576 C56.5056,367.581136 55.48536,365.854576 53.20944,364.363456 L54.46512,362.479936 C56.74104,363.892576 59.48784,366.482416 59.48784,370.720336 C59.48784,375.586096 56.19168,379.196176 50.38416,379.196176 L24.25032,379.196176 Z M44.18424,328.185048 C51.71832,329.048328 56.97648,334.071048 56.97648,341.448168 C56.97648,349.531608 49.20696,354.946728 39.39696,354.946728 C38.4552,354.946728 37.51344,354.868248 36.65016,354.789768 L36.65016,325.438248 C26.6832,325.516728 20.56176,332.422968 20.56176,341.291208 C20.56176,351.886008 29.74392,360.126408 40.4172,360.126408 C51.012,360.126408 59.48784,351.964488 59.48784,341.526648 C59.48784,332.658408 53.13096,326.380008 45.126,324.418008 L44.18424,328.185048 Z M22.91616,341.919048 C22.91616,334.777368 28.40976,331.795128 34.29576,331.716648 L34.21728,354.318888 C27.31104,352.592328 22.91616,347.491128 22.91616,341.919048 Z M31.7844,313.038408 C28.40976,313.038408 28.01736,313.901688 32.1768,318.296568 L30.6072,319.709208 L20.16936,308.722008 L20.16936,308.408088 L30.13632,308.408088 L30.13632,308.015688 C24.56424,305.975208 20.56176,301.737288 20.56176,296.400648 C20.56176,293.810808 21.42504,291.377928 23.1516,289.258968 L28.56672,292.790568 L28.56672,292.947528 C26.21232,294.438648 25.19208,296.322168 25.19208,298.990488 C25.19208,304.248648 31.392,308.408088 37.90584,308.408088 L50.38416,308.408088 C54.30816,308.408088 56.03472,307.073928 56.03472,302.836008 L56.03472,300.560088 L58.23216,300.560088 L58.23216,319.316808 L56.03472,319.316808 L56.03472,318.610488 C56.03472,314.372568 54.30816,313.038408 50.38416,313.038408 L31.7844,313.038408 Z M30.13632,275.21192 L20.16936,275.21192 L20.16936,275.52584 L30.6072,286.51304 L32.1768,285.1004 C28.01736,280.70552 28.40976,279.84224 31.7844,279.84224 L50.38416,279.84224 C54.30816,279.84224 56.03472,281.1764 56.03472,285.41432 L56.03472,286.12064 L58.23216,286.12064 L58.23216,268.93352 L56.03472,268.93352 L56.03472,269.63984 C56.03472,273.87776 54.30816,275.21192 50.38416,275.21192 L37.90584,275.21192 C29.8224,275.21192 24.3288,269.09048 24.3288,263.36144 C24.3288,257.47544 28.33128,255.82736 33.354,255.82736 L50.38416,255.82736 C54.30816,255.82736 56.03472,257.16152 56.03472,261.39944 L56.03472,262.10576 L58.23216,262.10576 L58.23216,244.91864 L56.03472,244.91864 L56.03472,245.62496 C56.03472,249.86288 54.30816,251.19704 50.38416,251.19704 L33.354,251.19704 C25.42752,251.19704 20.56176,255.19952 20.56176,262.41968 C20.56176,268.54112 24.48576,273.17144 30.13632,274.81952 L30.13632,275.21192 Z M54.5436,206.07104 L59.17392,216.8228 L59.17392,216.97976 L49.91328,216.97976 L49.91328,217.37216 C55.09296,219.25568 59.48784,224.04296 59.48784,230.32136 C59.48784,236.8352 55.24992,240.99464 50.07024,240.99464 C42.30072,240.99464 36.72864,232.83272 35.39448,216.97976 L32.80464,216.97976 C26.60472,216.97976 22.91616,219.88352 22.91616,225.53408 C22.91616,232.36184 27.70344,235.658 34.76664,234.16688 L34.76664,240.60224 C27.23256,240.60224 20.56176,235.658 20.56176,225.37712 C20.56176,218.15696 24.40728,212.34944 32.64768,212.34944 L52.50312,212.34944 C55.09296,212.34944 54.1512,211.01528 52.34616,207.0128 L54.5436,206.07104 Z M37.6704,216.97976 C38.29824,228.28088 42.53616,235.658 49.67784,235.658 C53.60184,235.658 56.34864,233.22512 56.34864,228.83024 C56.34864,223.02272 49.59936,216.97976 41.75136,216.97976 L37.6704,216.97976 Z M24.25032,198.223912 L24.25032,206.464312 L22.05288,206.464312 C21.66048,199.244152 17.34408,194.692312 9.18216,196.575832 L9.18216,193.593592 L21.81744,193.593592 L21.81744,183.234232 L24.25032,183.234232 L24.25032,193.593592 L50.93352,193.593592 C54.07272,193.593592 56.5056,191.945512 56.5056,188.806312 C56.5056,186.608872 55.48536,184.882312 53.20944,183.391192 L54.46512,181.507672 C56.74104,182.920312 59.48784,185.510152 59.48784,189.748072 C59.48784,194.613832 56.19168,198.223912 50.38416,198.223912 L24.25032,198.223912 Z M3.37464,171.854632 L9.88848,171.854632 L9.88848,165.340792 L3.37464,165.340792 L3.37464,171.854632 Z M30.6072,177.583672 L20.16936,166.596472 L20.16936,166.282552 L50.38416,166.282552 C54.30816,166.282552 56.03472,164.948392 56.03472,160.710472 L56.03472,160.004152 L58.23216,160.004152 L58.23216,177.191272 L56.03472,177.191272 L56.03472,176.484952 C56.03472,172.247032 54.30816,170.912872 50.38416,170.912872 L31.7844,170.912872 C28.40976,170.912872 28.01736,171.776152 32.1768,176.171032 L30.6072,177.583672 Z M40.0248,119.823264 C29.43,119.823264 20.56176,127.514304 20.56176,138.344544 C20.56176,149.174784 29.43,156.865824 40.0248,156.865824 C50.6196,156.865824 59.48784,149.174784 59.48784,138.344544 C59.48784,127.514304 50.6196,119.823264 40.0248,119.823264 Z M40.0248,125.002944 C49.8348,125.002944 57.13344,130.339584 57.13344,138.344544 C57.13344,146.349504 49.8348,151.686144 40.0248,151.686144 C30.2148,151.686144 22.91616,146.349504 22.91616,138.344544 C22.91616,130.339584 30.2148,125.002944 40.0248,125.002944 Z M30.13632,104.598144 L20.16936,104.598144 L20.16936,104.912064 L30.6072,115.899264 L32.1768,114.486624 C28.01736,110.091744 28.40976,109.228464 31.7844,109.228464 L50.38416,109.228464 C54.30816,109.228464 56.03472,110.562624 56.03472,114.800544 L56.03472,115.506864 L58.23216,115.506864 L58.23216,98.319744 L56.03472,98.319744 L56.03472,99.026064 C56.03472,103.263984 54.30816,104.598144 50.38416,104.598144 L37.90584,104.598144 C29.8224,104.598144 24.3288,98.476704 24.3288,92.747664 C24.3288,86.861664 28.33128,85.213584 33.354,85.213584 L50.38416,85.213584 C54.30816,85.213584 56.03472,86.547744 56.03472,90.785664 L56.03472,91.491984 L58.23216,91.491984 L58.23216,74.304864 L56.03472,74.304864 L56.03472,75.011184 C56.03472,79.249104 54.30816,80.583264 50.38416,80.583264 L33.354,80.583264 C25.42752,80.583264 20.56176,84.585744 20.56176,91.805904 C20.56176,97.927344 24.48576,102.557664 30.13632,104.205744 L30.13632,104.598144 Z M54.5436,36.242064 L59.17392,46.993824 L59.17392,47.150784 L49.91328,47.150784 L49.91328,47.543184 C55.09296,49.426704 59.48784,54.213984 59.48784,60.492384 C59.48784,67.006224 55.24992,71.165664 50.07024,71.165664 C42.30072,71.165664 36.72864,63.003744 35.39448,47.150784 L32.80464,47.150784 C26.60472,47.150784 22.91616,50.054544 22.91616,55.705104 C22.91616,62.532864 27.70344,65.829024 34.76664,64.337904 L34.76664,70.773264 C27.23256,70.773264 20.56176,65.829024 20.56176,55.548144 C20.56176,48.327984 24.40728,42.520464 32.64768,42.520464 L52.50312,42.520464 C55.09296,42.520464 54.1512,41.186304 52.34616,37.183824 L54.5436,36.242064 Z M37.6704,47.150784 C38.29824,58.451904 42.53616,65.829024 49.67784,65.829024 C53.60184,65.829024 56.34864,63.396144 56.34864,59.001264 C56.34864,53.193744 49.59936,47.150784 41.75136,47.150784 L37.6704,47.150784 Z M9.96696,33.496136 L0,21.802616 L0,21.488696 L50.38416,21.488696 C54.30816,21.488696 56.03472,20.154536 56.03472,15.916616 L56.03472,15.211168 L58.23216,15.211168 L58.23216,32.397416 L56.03472,32.397416 L56.03472,31.691096 C56.03472,27.453176 54.30816,26.119888 50.38416,26.119888 L10.5948,26.119888 C7.848,26.119888 7.22016,26.903816 11.53656,32.083496 L9.96696,33.496136 Z" id="Fill-5"></path>
            </g>
        </g>
    </g>
</svg>
